<svg width="16" height="16" viewBox="0 0 16 16" fill="none" xmlns="http://www.w3.org/2000/svg">
<path fill-rule="evenodd" clip-rule="evenodd" d="M12 12.6667V10.6667C12 10.2985 11.7016 10 11.3334 10C10.9652 10 10.6667 10.2985 10.6667 10.6667V12.6667C10.6667 13.0349 10.3682 13.3334 10 13.3334H3.33337C2.96518 13.3334 2.66671 13.0349 2.66671 12.6667V3.33337C2.66671 2.96518 2.96518 2.66671 3.33337 2.66671H10C10.3682 2.66671 10.6667 2.96518 10.6667 3.33337V5.33337C10.6667 5.70156 10.9652 6.00004 11.3334 6.00004C11.7016 6.00004 12 5.70156 12 5.33337V3.33337C12 2.2288 11.1046 1.33337 10 1.33337H3.33337C2.2288 1.33337 1.33337 2.2288 1.33337 3.33337V12.6667C1.33337 13.7713 2.2288 14.6667 3.33337 14.6667H10C11.1046 14.6667 12 13.7713 12 12.6667ZM13.14 6.19337L14.4734 7.52671C14.5996 7.65189 14.6706 7.82228 14.6706 8.00004C14.6706 8.1778 14.5996 8.3482 14.4734 8.47337L13.14 9.80671C13.0149 9.93292 12.8445 10.0039 12.6667 10.0039C12.4889 10.0039 12.3186 9.93292 12.1934 9.80671C12.0672 9.68153 11.9962 9.51113 11.9962 9.33337C11.9962 9.15562 12.0672 8.98522 12.1934 8.86004L12.3934 8.66671H8.00004C7.63185 8.66671 7.33337 8.36823 7.33337 8.00004C7.33337 7.63185 7.63185 7.33337 8.00004 7.33337H12.3934L12.1934 7.14004C11.932 6.87863 11.932 6.45479 12.1934 6.19337C12.4548 5.93196 12.8786 5.93196 13.14 6.19337Z" fill="#231F20"/>
</svg>
